<?xml version="1.0" encoding="UTF-8" standalone="no"?>
<svg
   xmlns:dc="http://purl.org/dc/elements/1.1/"
   xmlns:cc="http://creativecommons.org/ns#"
   xmlns:rdf="http://www.w3.org/1999/02/22-rdf-syntax-ns#"
   xmlns:svg="http://www.w3.org/2000/svg"
   xmlns="http://www.w3.org/2000/svg"
   xmlns:sodipodi="http://sodipodi.sourceforge.net/DTD/sodipodi-0.dtd"
   xmlns:inkscape="http://www.inkscape.org/namespaces/inkscape"
   id="svg4306"
   style="enable-background:new"
   width="16"
   height="16"
   version="1.1"
   sodipodi:docname="maximize-2.svg"
   inkscape:version="0.92.2 5c3e80d, 2017-08-06">
  <metadata
     id="metadata30">
    <rdf:RDF>
      <cc:Work
         rdf:about="">
        <dc:format>image/svg+xml</dc:format>
        <dc:type
           rdf:resource="http://purl.org/dc/dcmitype/StillImage" />
      </cc:Work>
    </rdf:RDF>
  </metadata>
  <defs
     id="defs28" />
  <sodipodi:namedview
     pagecolor="#ffffff"
     bordercolor="#666666"
     borderopacity="1"
     objecttolerance="10"
     gridtolerance="10"
     guidetolerance="10"
     inkscape:pageopacity="0"
     inkscape:pageshadow="2"
     inkscape:window-width="1920"
     inkscape:window-height="1143"
     id="namedview26"
     showgrid="false"
     inkscape:zoom="10.429825"
     inkscape:cx="36.577186"
     inkscape:cy="6.9956514"
     inkscape:window-x="0"
     inkscape:window-y="0"
     inkscape:window-maximized="1"
     inkscape:current-layer="svg4306" />
  <g
     id="active-center"
     style="display:inline;opacity:0.7"
     transform="translate(-616,185.63782)">
    <g
       id="g7146-16-4"
       style="display:inline;opacity:1"
       transform="translate(-781,-432.63782)">
      <path
         id="path4293-5-95-1-7"
         style="display:inline;opacity:1;fill:#91969d;fill-opacity:1;fill-rule:evenodd;stroke:none"
         d="m 1403.7995,252 3.3818,0 c 0.4503,0 0.8162,0.36847 0.8187,0.8188 l 0,3.3817 z m 2.4074,6.00692 -3.395,0 c -0.4504,0 -0.8188,-0.36842 -0.8188,-0.81875 l 0,-3.39509 4.2138,4.21384" />
    </g>
    <rect
       id="rect17883-29-2-2"
       style="display:inline;opacity:1;fill:none;fill-opacity:1;stroke:none;stroke-width:1;stroke-linecap:butt;stroke-linejoin:miter;stroke-miterlimit:4;stroke-dasharray:none;stroke-dashoffset:0;stroke-opacity:0"
       width="16"
       height="16"
       x="616"
       y="-185.64" />
  </g>
  <g
     id="hover-center"
     transform="translate(-39)">
    <ellipse
       id="path4068-7-5-9-6-7-2-4-6-6"
       style="display:inline;opacity:0.45;fill:#91969d;fill-opacity:1;stroke:none;stroke-width:0;stroke-linecap:butt;stroke-linejoin:miter;stroke-miterlimit:4;stroke-dasharray:none;stroke-dashoffset:0;stroke-opacity:1"
       cx="65"
       cy="8"
       rx="6"
       ry="6" />
    <path
       id="path4068-7-5-9-6-7-2-5-78-2-6"
       style="display:inline;opacity:0.37000002;fill:#91969d;fill-opacity:1;stroke:none;stroke-width:0;stroke-linecap:butt;stroke-linejoin:miter;stroke-miterlimit:4;stroke-dasharray:none;stroke-dashoffset:0;stroke-opacity:1"
       d="m 65,1 a 7,7 0 0 0 -7,7 7,7 0 0 0 7,7 7,7 0 0 0 7,-7 7,7 0 0 0 -7,-7 z m 0,1 a 6,6 0 0 1 6,6 6,6 0 0 1 -6,6 6,6 0 0 1 -6,-6 6,6 0 0 1 6,-6 z" />
    <path
       id="path4293-6-7-1"
       style="opacity:1;fill:#91969d;fill-opacity:1;fill-rule:evenodd;stroke:none"
       d="m 63.799505,5 h 3.381737 C 67.631539,5 67.997469,5.36847 68,5.8188 v 3.3817 z m 2.407413,6.00692 H 62.81184 c -0.450346,0 -0.818758,-0.36842 -0.818758,-0.81875 V 6.79308 l 4.213836,4.21384" />
    <rect
       id="rect17883-0-1-5"
       style="display:inline;opacity:1;fill:none;fill-opacity:1;stroke:none;stroke-width:1;stroke-linecap:butt;stroke-linejoin:miter;stroke-miterlimit:4;stroke-dasharray:none;stroke-dashoffset:0;stroke-opacity:0"
       width="16"
       height="16"
       x="57"
       y="0" />
  </g>
  <g
     id="pressed-center"
     transform="translate(-2)">
    <g
       id="g4490-2-9-1-2-4-8"
       style="display:inline;opacity:1"
       transform="translate(-1388,-247)">
      <g
         id="g4092-0-6-3-6-8-3-7"
         style="display:inline"
         transform="translate(58)">
        <circle
           id="path4068-7-6-5-1-6-6-0"
           style="fill:#91969d;fill-opacity:1;stroke:none;stroke-width:0;stroke-linecap:butt;stroke-linejoin:miter;stroke-miterlimit:4;stroke-dasharray:none;stroke-dashoffset:0;stroke-opacity:1"
           cx="1376"
           cy="255"
           r="7" />
      </g>
    </g>
    <path
       id="path4293-4-9-0-2"
       style="fill:#ffffff;fill-opacity:1;fill-rule:evenodd;stroke:none"
       d="m 44.799505,5 h 3.381737 C 48.631539,5 48.997469,5.36847 49,5.8188 v 3.3817 z m 2.407413,6.00692 H 43.81184 c -0.450346,0 -0.818758,-0.36842 -0.818758,-0.81875 V 6.79308 l 4.213836,4.21384" />
    <rect
       id="rect17883-79-3-0"
       style="display:inline;opacity:1;fill:none;fill-opacity:1;stroke:none;stroke-width:1;stroke-linecap:butt;stroke-linejoin:miter;stroke-miterlimit:4;stroke-dasharray:none;stroke-dashoffset:0;stroke-opacity:0"
       width="16"
       height="16"
       x="38"
       y="0" />
  </g>
  <g
     id="inactive-center"
     style="display:inline;opacity:0.4"
     transform="translate(-562,168.63782)">
    <g
       id="g7146-1-1-6"
       style="display:inline;opacity:1"
       transform="translate(-781,-415.63782)">
      <path
         id="path4293-5-6-4"
         style="display:inline;opacity:1;fill:#91969d;fill-opacity:1;fill-rule:evenodd;stroke:none"
         d="m 1403.7995,252 h 3.3818 c 0.4503,0 0.8162,0.36847 0.8187,0.8188 v 3.3817 z m 2.4074,6.00692 h -3.395 c -0.4504,0 -0.8188,-0.36842 -0.8188,-0.81875 v -3.39509 l 4.2138,4.21384" />
    </g>
    <rect
       id="rect17883-39-6-2-5"
       style="display:inline;opacity:1;fill:none;fill-opacity:1;stroke:none;stroke-width:1;stroke-linecap:butt;stroke-linejoin:miter;stroke-miterlimit:4;stroke-dasharray:none;stroke-dashoffset:0;stroke-opacity:0"
       width="16"
       height="16"
       x="616"
       y="-168.64" />
  </g>
  <g
     id="deactivated-center"
     style="display:inline;opacity:0.4"
     transform="translate(-544,168.63782)">
    <g
       id="g37"
       style="display:inline;opacity:1"
       transform="translate(-781,-415.63782)">
      <path
         id="path35"
         style="display:inline;opacity:1;fill:#91969d;fill-opacity:1;fill-rule:evenodd;stroke:none"
         d="m 1403.7995,252 h 3.3818 c 0.4503,0 0.8162,0.36847 0.8187,0.8188 v 3.3817 z m 2.4074,6.00692 h -3.395 c -0.4504,0 -0.8188,-0.36842 -0.8188,-0.81875 v -3.39509 l 4.2138,4.21384" />
    </g>
    <rect
       id="rect39"
       style="display:inline;opacity:1;fill:none;fill-opacity:1;stroke:none;stroke-width:1;stroke-linecap:butt;stroke-linejoin:miter;stroke-miterlimit:4;stroke-dasharray:none;stroke-dashoffset:0;stroke-opacity:0"
       width="16"
       height="16"
       x="616"
       y="-168.64" />
  </g>
</svg>
