<?xml version="1.0" encoding="UTF-8" standalone="no"?>
<svg
   xmlns:dc="http://purl.org/dc/elements/1.1/"
   xmlns:cc="http://creativecommons.org/ns#"
   xmlns:rdf="http://www.w3.org/1999/02/22-rdf-syntax-ns#"
   xmlns:svg="http://www.w3.org/2000/svg"
   xmlns="http://www.w3.org/2000/svg"
   xmlns:sodipodi="http://sodipodi.sourceforge.net/DTD/sodipodi-0.dtd"
   xmlns:inkscape="http://www.inkscape.org/namespaces/inkscape"
   width="64"
   height="64"
   version="1.1"
   id="svg10"
   sodipodi:docname="distributor-logo-lubuntu.svg"
   inkscape:version="0.92.2 5c3e80d, 2017-08-06">
  <metadata
     id="metadata16">
    <rdf:RDF>
      <cc:Work
         rdf:about="">
        <dc:format>image/svg+xml</dc:format>
        <dc:type
           rdf:resource="http://purl.org/dc/dcmitype/StillImage" />
      </cc:Work>
    </rdf:RDF>
  </metadata>
  <defs
     id="defs14" />
  <sodipodi:namedview
     pagecolor="#ffffff"
     bordercolor="#666666"
     borderopacity="1"
     objecttolerance="10"
     gridtolerance="10"
     guidetolerance="10"
     inkscape:pageopacity="0"
     inkscape:pageshadow="2"
     inkscape:window-width="793"
     inkscape:window-height="480"
     id="namedview12"
     showgrid="false"
     inkscape:zoom="3.6875"
     inkscape:cx="32"
     inkscape:cy="32"
     inkscape:window-x="0"
     inkscape:window-y="0"
     inkscape:window-maximized="0"
     inkscape:current-layer="svg10" />
  <circle
     style="opacity:0.2"
     cx="32"
     cy="33"
     r="28"
     id="circle2" />
  <circle
     style="fill:#646464;fill-opacity:1"
     cx="32"
     cy="32"
     r="28"
     id="circle4" />
  <path
     style="fill:#ffffff"
     d="M 38.738,11.942 C 37.918,11.902 33.34,13.262 31.98,14.962 28.184,15.224 13.713,24.976 4.0118,31.774 A 28,28 0 0 0 4,32 28,28 0 0 0 4.1406,34.562 C 7.981,33.138 11.936,31.842 13.699,31.86 14.099,31.86 14.4,31.918 14.52,32.078 15.32,32.998 11.96,37.502 8.5,42.602 8.0142,43.31 7.5452,44.02 7.0664,44.734 A 28,28 0 0 0 8.0352,46.43 C 12.53,40.824 17.592,34.64 19.102,34.422 19.202,34.402 19.28,34.422 19.34,34.442 19.616,34.774 14.933,42.31 10.371,49.754 A 28,28 0 0 0 12.176,51.754 C 14.228,48.928 16.355,45.976 18.461,43.078 23.66,35.898 28.26,29.162 30.52,29.102 30.58,29.102 30.638,29.122 30.718,29.122 37.252,29.158 43.612,44.558 47.3,55.442 A 28,28 0 0 0 49.102,54.152 C 47.246,41.906 43.266,23.844 35.378,18.578 36.278,17.978 36.36,14.922 36.36,14.922 Z"
     id="path6" />
  <path
     style="opacity:0.1;fill:#ffffff"
     d="M 32 4 A 28 28 0 0 0 4 32 A 28 28 0 0 0 4.0215 32.586 A 28 28 0 0 1 32 5 A 28 28 0 0 1 59.979 32.414 A 28 28 0 0 0 60 32 A 28 28 0 0 0 32 4 z"
     id="path8" />
</svg>
