<?xml version="1.0" encoding="UTF-8" standalone="no"?>
<svg
   xmlns:dc="http://purl.org/dc/elements/1.1/"
   xmlns:cc="http://creativecommons.org/ns#"
   xmlns:rdf="http://www.w3.org/1999/02/22-rdf-syntax-ns#"
   xmlns:svg="http://www.w3.org/2000/svg"
   xmlns="http://www.w3.org/2000/svg"
   xmlns:sodipodi="http://sodipodi.sourceforge.net/DTD/sodipodi-0.dtd"
   xmlns:inkscape="http://www.inkscape.org/namespaces/inkscape"
   width="64"
   height="64"
   version="1.1"
   id="svg12"
   sodipodi:docname="distributor-logo-fedora.svg"
   inkscape:version="0.92.2 5c3e80d, 2017-08-06">
  <metadata
     id="metadata18">
    <rdf:RDF>
      <cc:Work
         rdf:about="">
        <dc:format>image/svg+xml</dc:format>
        <dc:type
           rdf:resource="http://purl.org/dc/dcmitype/StillImage" />
      </cc:Work>
    </rdf:RDF>
  </metadata>
  <defs
     id="defs16" />
  <sodipodi:namedview
     pagecolor="#ffffff"
     bordercolor="#666666"
     borderopacity="1"
     objecttolerance="10"
     gridtolerance="10"
     guidetolerance="10"
     inkscape:pageopacity="0"
     inkscape:pageshadow="2"
     inkscape:window-width="791"
     inkscape:window-height="480"
     id="namedview14"
     showgrid="false"
     inkscape:zoom="3.6875"
     inkscape:cx="32"
     inkscape:cy="32"
     inkscape:window-x="0"
     inkscape:window-y="0"
     inkscape:window-maximized="0"
     inkscape:current-layer="svg12" />
  <path
     style="opacity:.2"
     d="m32.00014 5.0014c-15.457477 0-27.98894 12.530063-28.00014 27.98474v23.668518c0 2.407032 1.9383096 4.345342 4.3453418 4.345342h23.669918c15.458878 0 27.98474-12.539722 27.98474-28.00014 0-15.464477-12.536222-28.00014-28.00014-28.00014z"
     id="path2" />
  <path
     style="fill:#5e5e5e;fill-opacity:1"
     d="m32.00014 4.00154c-15.457477 0-27.98894 12.530063-28.00014 27.98474v23.668518c0 2.407032 1.9383096 4.345342 4.3453418 4.345342h23.669918c15.458878 0 27.98474-12.539722 27.98474-28.00014 0-15.464477-12.536222-28.00014-28.00014-28.00014z"
     id="path4" />
  <path
     style="opacity:.2;fill:#ffffff"
     d="m41 10c-7.179702 0-13 5.820298-13 13v7h-9c-7.179702 0-13 5.820298-13 13s5.820298 13 13 13 13-5.820298 13-13v-7h9c7.179702 0 13-5.820298 13-13s-5.820298-13-13-13zm0 6c3.865994 0 7 3.134006 7 7s-3.134006 7-7 7h-5.152344s-1.847656-0.001202-1.847656-2.078124v-4.921876c0-3.865994 3.134006-7 7-7zm-22 20h5.152344s1.847656 0.0012 1.847656 2.078124v4.921876c0 3.865994-3.134006 7-7 7-3.865993 0-7-3.134006-7-7s3.134007-7 7-7z"
     id="path6" />
  <path
     style="fill:#ffffff"
     d="m41 10c-7.179702 0-13 5.820298-13 13v7h-7.054688c-1.637637 0.12194-2.926213 1.438554-2.925781 3.105468 0 1.323688 0.81296 2.435548 1.964844 2.894532h4.167969s1.847656 0.0012 1.847656 2.078124v4.921876c0 3.865994-3.134006 7-7 7-1 0-1.379641-0.08922-2-0.19922-1.656854 0-3 1.343146-3 3 0.003 1.580378 1.231433 2.887452 2.808594 2.98828 0.03315 0.0094 0.05862 0.0333 0.09375 0.03906 0.683124 0.111968 1.383337 0.17188 2.097656 0.17188 7.179702 0 13-5.820298 13-13v-7h7.964844c1.157848-0.456378 1.980468-1.570574 1.980468-2.898438-0.001322-1.643418-1.257792-2.96072-2.859374-3.101562h-3.238282s-1.847656-0.001204-1.847656-2.078124v-4.921876c0-3.865994 3.134006-7 7-7 0.48547 0 0.960422 0.04938 1.417968 0.144532h0.004c0.19048 0.03688 0.3841 0.0552 0.578124 0.05469 1.656854 0 3-1.343146 3-3-0.0014-1.324677-0.87146-2.491629-2.140624-2.871094-0.0024-0.000567-0.0054 0.000566-0.0078 0-0.224936-0.06728-0.456992-0.107924-0.691406-0.121094-0.704854-0.122066-1.420886-0.207034-2.160262-0.207034z"
     id="path8" />
  <path
     style="opacity:.1;fill:#ffffff"
     d="m32 4c-15.457477 0-27.9888 12.529697-28 27.984375v1c0.0112-15.454678 12.542523-27.984375 28-27.984375 15.24128 0 27.628611 12.179193 27.982422 27.335938 0.006287-0.11184 0.017578-0.222558 0.017578-0.335938 0-15.464477-12.536082-28-28-28z"
     id="path10" />
</svg>
