<?xml version="1.0" encoding="UTF-8" standalone="no"?>
<svg
   xmlns:dc="http://purl.org/dc/elements/1.1/"
   xmlns:cc="http://creativecommons.org/ns#"
   xmlns:rdf="http://www.w3.org/1999/02/22-rdf-syntax-ns#"
   xmlns:svg="http://www.w3.org/2000/svg"
   xmlns="http://www.w3.org/2000/svg"
   xmlns:sodipodi="http://sodipodi.sourceforge.net/DTD/sodipodi-0.dtd"
   xmlns:inkscape="http://www.inkscape.org/namespaces/inkscape"
   id="svg2"
   width="136"
   height="40"
   version="1.1"
   viewBox="0 0 35.98 10.58"
   sodipodi:docname="busywidget.svg"
   inkscape:version="0.92.2 5c3e80d, 2017-08-06">
  <metadata
     id="metadata20">
    <rdf:RDF>
      <cc:Work
         rdf:about="">
        <dc:format>image/svg+xml</dc:format>
        <dc:type
           rdf:resource="http://purl.org/dc/dcmitype/StillImage" />
      </cc:Work>
    </rdf:RDF>
  </metadata>
  <defs
     id="defs18" />
  <sodipodi:namedview
     pagecolor="#ffffff"
     bordercolor="#666666"
     borderopacity="1"
     objecttolerance="10"
     gridtolerance="10"
     guidetolerance="10"
     inkscape:pageopacity="0"
     inkscape:pageshadow="2"
     inkscape:window-width="1920"
     inkscape:window-height="1139"
     id="namedview16"
     showgrid="false"
     inkscape:zoom="6.2183802"
     inkscape:cx="62.435966"
     inkscape:cy="24.052657"
     inkscape:window-x="0"
     inkscape:window-y="0"
     inkscape:window-maximized="1"
     inkscape:current-layer="svg2" />
  <rect
     id="hint-rotation-angle"
     width="3.704"
     height="3.704"
     x="0"
     y="10.59"
     style="fill:#0000ff;fill-opacity:1;fill-rule:nonzero;stroke:none;stroke-width:0.26458335" />
  <g
     id="22-22-busywidget">
    <rect
       id="rect3007"
       width="5.82"
       height="5.82"
       x="6.61"
       y="4.76"
       style="opacity:0.001;fill:#000000;fill-opacity:1;stroke:none" />
    <path
       id="path4148"
       d="M 36 18 A 2 2.0000001 0 0 0 34 20 A 2 2.0000001 0 0 0 36 22 A 2 2.0000001 0 0 0 38 20 A 2 2.0000001 0 0 0 36 18 z M 29.607422 20.636719 A 2.0000001 2 0 0 0 28.222656 21.222656 A 2.0000001 2 0 0 0 28.222656 24.050781 A 2.0000001 2 0 0 0 31.050781 24.050781 A 2.0000001 2 0 0 0 31.050781 21.222656 A 2.0000001 2 0 0 0 29.607422 20.636719 z M 42.333984 20.636719 A 1.9999999 2.0000002 0 0 0 40.949219 21.222656 A 1.9999999 2.0000002 0 0 0 40.949219 24.050781 A 1.9999999 2.0000002 0 0 0 43.777344 24.050781 A 1.9999999 2.0000002 0 0 0 43.777344 21.222656 A 1.9999999 2.0000002 0 0 0 42.333984 20.636719 z M 27 27 A 2.0000001 2 0 0 0 25 29 A 2.0000001 2 0 0 0 27 31 A 2.0000001 2 0 0 0 29 29 A 2.0000001 2 0 0 0 27 27 z M 45 27 A 2.0000001 2 0 0 0 43 29 A 2.0000001 2 0 0 0 45 31 A 2.0000001 2 0 0 0 47 29 A 2.0000001 2 0 0 0 45 27 z M 29.607422 33.363281 A 1.9999999 2.0000002 0 0 0 28.222656 33.949219 A 1.9999999 2.0000002 0 0 0 28.222656 36.777344 A 1.9999999 2.0000002 0 0 0 31.050781 36.777344 A 1.9999999 2.0000002 0 0 0 31.050781 33.949219 A 1.9999999 2.0000002 0 0 0 29.607422 33.363281 z M 42.333984 33.363281 A 2.0000001 2 0 0 0 40.949219 33.949219 A 2.0000001 2 0 0 0 40.949219 36.777344 A 2.0000001 2 0 0 0 43.777344 36.777344 A 2.0000001 2 0 0 0 43.777344 33.949219 A 2.0000001 2 0 0 0 42.333984 33.363281 z M 36 36 A 2 2.0000001 0 0 0 34 38 A 2 2.0000001 0 0 0 36 40 A 2 2.0000001 0 0 0 38 38 A 2 2.0000001 0 0 0 36 36 z"
       transform="matrix(0.26455883,0,0,0.26455881,0,-0.00117624)"
       style="opacity:1;fill:#d3dae3;fill-opacity:1;fill-rule:nonzero;stroke:none;stroke-width:2;stroke-linecap:round;stroke-linejoin:round;stroke-miterlimit:4;stroke-dasharray:none;stroke-opacity:1" />
  </g>
  <g
     id="16-16-busywidget">
    <rect
       id="rect4173"
       width="4.233"
       height="4.233"
       x="0"
       y="6.35"
       style="opacity:0.001;fill:#000000;fill-opacity:1;stroke:none" />
    <path
       id="path4166"
       d="M 2.1164706,6.3482352 A 0.39683825,0.39683821 0 0 0 1.7196324,6.7450734 0.39683825,0.39683821 0 0 0 2.1164706,7.1419116 0.39683825,0.39683821 0 0 0 2.5133089,6.7450734 0.39683825,0.39683821 0 0 0 2.1164706,6.3482352 Z M 0.89495292,6.8520337 a 0.39683825,0.39683821 0 0 0 -0.27489316,0.1162612 0.39683825,0.39683821 0 0 0 0,0.5611541 0.39683825,0.39683821 0 0 0 0.56115414,0 0.39683825,0.39683821 0 0 0 0,-0.5611541 0.39683825,0.39683821 0 0 0 -0.28626098,-0.1162612 z m 2.43166778,0 a 0.39683825,0.39683821 0 0 0 -0.2748933,0.1162612 0.39683825,0.39683821 0 0 0 0,0.5611541 0.39683825,0.39683821 0 0 0 0.5611541,0 0.39683825,0.39683821 0 0 0 0,-0.5611541 A 0.39683825,0.39683821 0 0 0 3.3266207,6.8520337 Z M 0.39683825,8.0678675 A 0.39683825,0.39683821 0 0 0 0,8.4647057 0.39683825,0.39683821 0 0 0 0.39683825,8.8615439 0.39683825,0.39683821 0 0 0 0.79367649,8.4647057 0.39683825,0.39683821 0 0 0 0.39683825,8.0678675 Z m 3.43926475,0 A 0.39683825,0.39683821 0 0 0 3.4392648,8.4647057 0.39683825,0.39683821 0 0 0 3.836103,8.8615439 0.39683825,0.39683821 0 0 0 4.2329413,8.4647057 0.39683825,0.39683821 0 0 0 3.836103,8.0678675 Z M 0.89495292,9.2837012 a 0.39683825,0.39683821 0 0 0 -0.27489316,0.1162611 0.39683825,0.39683821 0 0 0 0,0.5611541 0.39683825,0.39683821 0 0 0 0.56115414,0 0.39683825,0.39683821 0 0 0 0,-0.5611541 0.39683825,0.39683821 0 0 0 -0.28626098,-0.1162611 z m 2.43166778,0 a 0.39683825,0.39683821 0 0 0 -0.2748933,0.1162611 0.39683825,0.39683821 0 0 0 0,0.5611541 0.39683825,0.39683821 0 0 0 0.5611541,0 0.39683825,0.39683821 0 0 0 0,-0.5611541 A 0.39683825,0.39683821 0 0 0 3.3266207,9.2837012 Z M 2.1164706,9.7874997 A 0.39683825,0.39683821 0 0 0 1.7196324,10.184338 0.39683825,0.39683821 0 0 0 2.1164706,10.581176 0.39683825,0.39683821 0 0 0 2.5133089,10.184338 0.39683825,0.39683821 0 0 0 2.1164706,9.7874997 Z"
       style="opacity:1;fill:#d3dae3;fill-opacity:1;fill-rule:nonzero;stroke:none;stroke-width:2;stroke-linecap:round;stroke-linejoin:round;stroke-miterlimit:4;stroke-dasharray:none;stroke-opacity:1" />
  </g>
  <g
     id="busywidget"
     transform="matrix(1.9999723,0,0,1.9999723,13.227941,-10.580883)">
    <rect
       id="rect4190"
       width="4.233"
       height="4.233"
       x="0"
       y="6.35"
       style="opacity:0.001;fill:#000000;fill-opacity:1;stroke:none" />
    <path
       id="path4192"
       d="M 2.1164706,6.3482352 A 0.39683825,0.39683821 0 0 0 1.7196324,6.7450734 0.39683825,0.39683821 0 0 0 2.1164706,7.1419116 0.39683825,0.39683821 0 0 0 2.5133089,6.7450734 0.39683825,0.39683821 0 0 0 2.1164706,6.3482352 Z M 0.89495292,6.8520337 a 0.39683825,0.39683821 0 0 0 -0.27489316,0.1162612 0.39683825,0.39683821 0 0 0 0,0.5611541 0.39683825,0.39683821 0 0 0 0.56115414,0 0.39683825,0.39683821 0 0 0 0,-0.5611541 0.39683825,0.39683821 0 0 0 -0.28626098,-0.1162612 z m 2.43166778,0 a 0.39683825,0.39683821 0 0 0 -0.2748933,0.1162612 0.39683825,0.39683821 0 0 0 0,0.5611541 0.39683825,0.39683821 0 0 0 0.5611541,0 0.39683825,0.39683821 0 0 0 0,-0.5611541 A 0.39683825,0.39683821 0 0 0 3.3266207,6.8520337 Z M 0.39683825,8.0678675 A 0.39683825,0.39683821 0 0 0 0,8.4647057 0.39683825,0.39683821 0 0 0 0.39683825,8.8615439 0.39683825,0.39683821 0 0 0 0.79367649,8.4647057 0.39683825,0.39683821 0 0 0 0.39683825,8.0678675 Z m 3.43926475,0 A 0.39683825,0.39683821 0 0 0 3.4392648,8.4647057 0.39683825,0.39683821 0 0 0 3.836103,8.8615439 0.39683825,0.39683821 0 0 0 4.2329413,8.4647057 0.39683825,0.39683821 0 0 0 3.836103,8.0678675 Z M 0.89495292,9.2837012 a 0.39683825,0.39683821 0 0 0 -0.27489316,0.1162611 0.39683825,0.39683821 0 0 0 0,0.5611541 0.39683825,0.39683821 0 0 0 0.56115414,0 0.39683825,0.39683821 0 0 0 0,-0.5611541 0.39683825,0.39683821 0 0 0 -0.28626098,-0.1162611 z m 2.43166778,0 a 0.39683825,0.39683821 0 0 0 -0.2748933,0.1162611 0.39683825,0.39683821 0 0 0 0,0.5611541 0.39683825,0.39683821 0 0 0 0.5611541,0 0.39683825,0.39683821 0 0 0 0,-0.5611541 A 0.39683825,0.39683821 0 0 0 3.3266207,9.2837012 Z M 2.1164706,9.7874997 A 0.39683825,0.39683821 0 0 0 1.7196324,10.184338 0.39683825,0.39683821 0 0 0 2.1164706,10.581176 0.39683825,0.39683821 0 0 0 2.5133089,10.184338 0.39683825,0.39683821 0 0 0 2.1164706,9.7874997 Z"
       style="opacity:1;fill:#d3dae3;fill-opacity:1;fill-rule:nonzero;stroke:none;stroke-width:2;stroke-linecap:round;stroke-linejoin:round;stroke-miterlimit:4;stroke-dasharray:none;stroke-opacity:1" />
  </g>
  <g
     id="stopped">
    <rect
       id="rect4143"
       width="8.466"
       height="8.466"
       x="24.34"
       y="2.12"
       style="opacity:0.001;fill:#000000;fill-opacity:1;fill-rule:nonzero;stroke:none;stroke-width:2;stroke-linecap:round;stroke-linejoin:round;stroke-miterlimit:4;stroke-dasharray:none;stroke-opacity:1" />
    <path
       id="path4145"
       d="m 28.572354,2.1152942 a 4.2329413,4.2329412 0 0 0 -4.232942,4.232941 4.2329413,4.2329412 0 0 0 4.232942,4.2329408 4.2329413,4.2329412 0 0 0 4.232941,-4.2329408 4.2329413,4.2329412 0 0 0 -4.232941,-4.232941 z m 0,1.5873529 a 2.6455882,2.6455881 0 0 1 2.645588,2.6455881 2.6455882,2.6455881 0 0 1 -2.645588,2.6455881 2.6455882,2.6455881 0 0 1 -2.645589,-2.6455881 2.6455882,2.6455881 0 0 1 2.645589,-2.6455881 z"
       style="opacity:1;fill:#d3dae3;fill-opacity:1;fill-rule:nonzero;stroke:none;stroke-width:2;stroke-linecap:round;stroke-linejoin:round;stroke-miterlimit:4;stroke-dasharray:none;stroke-opacity:1" />
  </g>
  <path
     style="fill:#d3dae3;fill-opacity:1;stroke-width:0.16081358"
     d="M 7.0072351,26.476921 C 6.6864125,26.156099 6.5371646,25.84582 6.5371646,25.49967 c 0,-0.691805 0.7555172,-1.447323 1.4473223,-1.447323 0.6918051,0 1.4473222,0.755518 1.4473222,1.447323 0,0.691805 -0.7555171,1.447322 -1.4473222,1.447322 -0.3461507,0 -0.6564292,-0.149248 -0.9772518,-0.470071 z"
     id="path827"
     inkscape:connector-curvature="0"
     transform="matrix(0.26455882,0,0,0.26455882,0,-0.00117647)" />
  <path
     style="fill:#dbdbdb;fill-opacity:1;stroke-width:0.16081358"
     d="M 7.0072351,26.476921 C 6.6864125,26.156099 6.5371646,25.84582 6.5371646,25.49967 c 0,-0.633127 0.7577474,-1.447323 1.3469785,-1.447323 0.6059936,0 1.1679313,0.307402 1.3691192,0.748961 0.7105321,1.559449 -1.0492983,2.872342 -2.2460272,1.675613 z"
     id="path829"
     inkscape:connector-curvature="0"
     transform="matrix(0.26455882,0,0,0.26455882,0,-0.00117647)" />
  <path
     style="fill:#dbdbdb;fill-opacity:1;stroke-width:0.16081358"
     d="M 7.0072351,26.476921 C 6.6864125,26.156099 6.5371646,25.84582 6.5371646,25.49967 c 0,-0.716303 0.7543078,-1.447323 1.4934296,-1.447323 1.2583158,0 1.8789216,1.569012 0.9772518,2.470682 -0.5946467,0.594646 -1.3779083,0.576595 -2.0006109,-0.04611 z"
     id="path831"
     inkscape:connector-curvature="0"
     transform="matrix(0.26455882,0,0,0.26455882,0,-0.00117647)" />
  <path
     style="fill:#dbdbdb;fill-opacity:1;stroke-width:0.16081358"
     d="m 11.92442,28.682521 c -0.518283,-0.297234 -0.713094,-0.649852 -0.718547,-1.300602 -0.01012,-1.207645 1.327383,-1.835499 2.292648,-1.076222 1.335673,1.050641 -0.101812,3.221182 -1.574101,2.376824 z"
     id="path833"
     inkscape:connector-curvature="0"
     transform="matrix(0.26455882,0,0,0.26455882,0,-0.00117647)" />
  <path
     style="fill:#dbdbdb;fill-opacity:1;stroke-width:0.16081358"
     d="m 105.67874,39.795949 c -3.5545,-0.507354 -7.644296,-2.771468 -9.832322,-5.443177 -1.847681,-2.256127 -3.193227,-5.197322 -3.608725,-7.888221 -0.260591,-1.687669 -0.103597,-4.908066 0.316364,-6.489501 0.37905,-1.427382 1.493171,-3.879931 2.286035,-5.032318 2.081616,-3.025526 5.588608,-5.4515347 9.271058,-6.4133734 5.16331,-1.3486342 10.8379,0.13335 14.80674,3.8669524 5.08723,4.785697 6.47554,12.420507 3.38835,18.633731 -3.09309,6.2251 -9.76939,9.744805 -16.6275,8.765907 z m 4.48202,-6.012841 c 3.59245,-0.761116 6.67022,-3.787925 7.59415,-7.468406 0.3897,-1.552406 0.25405,-4.070938 -0.30355,-5.63581 -1.64204,-4.608269 -6.40452,-7.395932 -11.17196,-6.539389 -3.86236,0.693932 -7.035374,3.63604 -7.995669,7.413817 -0.284821,1.120476 -0.318602,3.405283 -0.06834,4.621892 0.725273,3.525748 4.015709,6.829324 7.570729,7.600975 1.34697,0.292372 3.01486,0.295011 4.37464,0.0069 z"
     id="path835"
     inkscape:connector-curvature="0"
     transform="matrix(0.26455882,0,0,0.26455882,0,-0.00117647)" />
  <path
     style="fill:#dbdbdb;fill-opacity:1;stroke-width:0.16081358"
     d="m 77.643829,26.60193 c -1.827142,-0.904412 -2.134506,-3.423226 -0.583866,-4.784706 0.533662,-0.468561 1.425304,-0.817624 2.093163,-0.819438 0.587648,-0.0016 1.909032,0.779788 2.302527,1.36157 0.209765,0.310139 0.417216,0.881722 0.461002,1.270185 0.269169,2.38806 -2.10986,4.04303 -4.272826,2.972389 z"
     id="path837"
     inkscape:connector-curvature="0"
     transform="matrix(0.26455882,0,0,0.26455882,0,-0.00117647)" />
  <path
     style="fill:#dbdbdb;fill-opacity:1;stroke-width:0.16081358"
     d="m 74.080017,17.524444 c -1.180649,-0.511995 -1.770097,-1.384469 -1.770097,-2.620016 0,-1.394506 0.505674,-2.224039 1.688542,-2.769968 1.25324,-0.578408 2.703223,-0.206455 3.556568,0.912338 0.411298,0.539239 0.463772,0.738239 0.463772,1.758768 0,1.02053 -0.05247,1.219529 -0.463772,1.758768 -0.824003,1.080324 -2.273991,1.48094 -3.475013,0.96011 z"
     id="path839"
     inkscape:connector-curvature="0"
     transform="matrix(0.26455882,0,0,0.26455882,0,-0.00117647)" />
  <path
     style="fill:#dbdbdb;fill-opacity:1;stroke-width:0.16081358"
     d="m 64.629503,13.59084 c -2.316311,-1.177269 -2.01496,-4.6335578 0.468293,-5.3710046 1.921473,-0.5706163 3.66621,0.6340568 3.795472,2.6206266 0.07032,1.080758 -0.248519,1.777497 -1.145729,2.50367 -0.802158,0.649241 -2.120765,0.753572 -3.118036,0.246708 z"
     id="path841"
     inkscape:connector-curvature="0"
     transform="matrix(0.26455882,0,0,0.26455882,0,-0.00117647)" />
  <path
     style="fill:#dbdbdb;fill-opacity:1;stroke-width:0.16081358"
     d="m 55.826528,17.618015 c -0.997469,-0.311202 -2.003107,-1.723161 -2.003107,-2.812449 0,-0.652198 0.494514,-1.676503 1.05815,-2.191788 1.397387,-1.277513 3.720708,-0.835204 4.54378,0.865035 0.922242,1.905097 -0.299465,4.102972 -2.356471,4.239342 -0.417951,0.02771 -0.97701,-0.01735 -1.242352,-0.10014 z"
     id="path843"
     inkscape:connector-curvature="0"
     transform="matrix(0.26455882,0,0,0.26455882,0,-0.00117647)" />
  <path
     style="fill:#dbdbdb;fill-opacity:1;stroke-width:0.16081358"
     d="m 51.803198,26.722887 c -0.593571,-0.258636 -1.483522,-1.244225 -1.62212,-1.796442 -0.05611,-0.223581 -0.06973,-0.795963 -0.03026,-1.271959 0.130393,-1.572365 1.233365,-2.556121 2.877264,-2.566271 0.717518,-0.0044 1.035157,0.08371 1.564756,0.434178 1.467203,0.970949 1.77747,3.190709 0.619925,4.435164 -0.838666,0.901633 -2.329002,1.236162 -3.409567,0.76533 z"
     id="path845"
     inkscape:connector-curvature="0"
     transform="matrix(0.26455882,0,0,0.26455882,0,-0.00117647)" />
  <path
     style="fill:#dbdbdb;fill-opacity:1;stroke-width:0.16081358"
     d="m 55.383896,35.780587 c -1.154399,-0.609417 -1.813524,-2.213725 -1.41082,-3.43393 0.42498,-1.287704 1.488839,-2.068527 2.818333,-2.068527 3.084453,0 4.098488,4.120064 1.358121,5.518096 -0.80138,0.408833 -1.974133,0.402202 -2.765634,-0.01564 z"
     id="path847"
     inkscape:connector-curvature="0"
     transform="matrix(0.26455882,0,0,0.26455882,0,-0.00117647)" />
  <path
     style="fill:#dbdbdb;fill-opacity:1;stroke-width:0.16081358"
     d="m 64.825435,39.670616 c -0.996794,-0.45278 -1.840909,-1.678332 -1.840909,-2.672775 0,-1.05536 0.938265,-2.3337 2.014564,-2.744742 2.448402,-0.935053 4.742401,1.611609 3.631298,4.03125 -0.351346,0.765122 -0.709975,1.107993 -1.507427,1.441189 -0.777546,0.32488 -1.499383,0.307625 -2.297526,-0.05492 z"
     id="path849"
     inkscape:connector-curvature="0"
     transform="matrix(0.26455882,0,0,0.26455882,0,-0.00117647)" />
  <path
     style="fill:#dbdbdb;fill-opacity:1;stroke-width:0.16081358"
     d="m 73.995472,35.889261 c -0.593571,-0.258635 -1.483522,-1.244225 -1.622119,-1.796441 -0.203144,-0.809391 0.02046,-2.109803 0.462402,-2.689223 1.230943,-1.613849 3.837874,-1.473661 4.854482,0.26105 0.900637,1.53682 0.275533,3.546929 -1.314609,4.227305 -0.646294,0.27653 -1.742183,0.275292 -2.380156,-0.0027 z"
     id="path851"
     inkscape:connector-curvature="0"
     transform="matrix(0.26455882,0,0,0.26455882,0,-0.00117647)" />
  <path
     style="fill:#dbdbdb;fill-opacity:1;stroke-width:0.16081358"
     d="m 41.808876,37.209942 c -1.131284,-0.297598 -1.686444,-1.729196 -1.105909,-2.851827 0.247665,-0.478931 1.109387,-0.97858 1.687713,-0.97858 0.91053,0 1.935832,1.046939 1.937075,1.977952 6.76e-4,0.504991 -0.334379,1.237371 -0.707897,1.547363 -0.373092,0.309639 -1.239096,0.455533 -1.810982,0.305092 z"
     id="path853"
     inkscape:connector-curvature="0"
     transform="matrix(0.26455882,0,0,0.26455882,0,-0.00117647)" />
  <path
     style="fill:#dbdbdb;fill-opacity:1;stroke-width:0.16081358"
     d="m 34.98709,39.606235 c -0.919664,-0.619762 -1.196093,-1.58718 -0.717802,-2.512093 0.338403,-0.6544 0.933267,-0.980776 1.787592,-0.980776 0.633293,0 0.827634,0.08223 1.292167,0.546766 0.44613,0.44613 0.546766,0.669591 0.546766,1.214088 0,0.901452 -0.388885,1.593553 -1.050804,1.87012 -0.7664,0.320222 -1.228812,0.28585 -1.857919,-0.138105 z"
     id="path855"
     inkscape:connector-curvature="0"
     transform="matrix(0.26455882,0,0,0.26455882,0,-0.00117647)" />
  <path
     style="fill:#dbdbdb;fill-opacity:1;stroke-width:0.16081358"
     d="m 29.11332,37.210196 c -1.35129,-0.350154 -1.849157,-2.135278 -0.883756,-3.168744 0.924718,-0.989913 2.524048,-0.728795 3.129681,0.510975 0.741042,1.516962 -0.58638,3.0878 -2.245925,2.657769 z"
     id="path857"
     inkscape:connector-curvature="0"
     transform="matrix(0.26455882,0,0,0.26455882,0,-0.00117647)" />
  <path
     style="fill:#dbdbdb;fill-opacity:1;stroke-width:0.16081358"
     d="m 26.161249,30.761601 c -0.508864,-0.257488 -1.130522,-1.177212 -1.130522,-1.672573 0,-1.167684 0.861766,-1.981223 2.098672,-1.981223 0.954665,0 1.760854,0.806189 1.760854,1.760854 0,0.901453 -0.388886,1.593553 -1.050804,1.870121 -0.670058,0.279968 -1.156927,0.286588 -1.6782,0.02282 z"
     id="path859"
     inkscape:connector-curvature="0"
     transform="matrix(0.26455882,0,0,0.26455882,0,-0.00117647)" />
  <path
     style="fill:#dbdbdb;fill-opacity:1;stroke-width:0.16081358"
     d="m 28.424855,24.122418 c -1.001081,-0.842354 -0.938221,-2.362387 0.127349,-3.079447 0.300534,-0.20224 0.770914,-0.367438 1.045288,-0.367108 0.976818,0.0012 2.026592,1.004582 2.026592,1.937076 0,0.578326 -0.49965,1.440048 -0.978581,1.687713 -0.722791,0.373769 -1.653396,0.299077 -2.220648,-0.178234 z"
     id="path861"
     inkscape:connector-curvature="0"
     transform="matrix(0.26455882,0,0,0.26455882,0,-0.00117647)" />
  <path
     style="fill:#dbdbdb;fill-opacity:1;stroke-width:0.16081358"
     d="m 35.242389,21.80835 c -0.563608,-0.233124 -1.068977,-0.920711 -1.156541,-1.57355 -0.165766,-1.23588 0.695823,-2.132555 2.049111,-2.132555 0.544497,0 0.767958,0.100636 1.214088,0.546766 0.44613,0.44613 0.546766,0.669591 0.546766,1.214088 0,1.543209 -1.307685,2.501886 -2.653424,1.945251 z"
     id="path863"
     inkscape:connector-curvature="0"
     transform="matrix(0.26455882,0,0,0.26455882,0,-0.00117647)" />
  <path
     style="fill:#dbdbdb;fill-opacity:1;stroke-width:0.16081358"
     d="m 41.015597,23.988022 c -0.446131,-0.44613 -0.546766,-0.669591 -0.546766,-1.214088 0,-1.354391 0.896565,-2.214892 2.134692,-2.048825 1.246545,0.167197 1.970112,1.373106 1.563372,2.605542 -0.24544,0.74369 -0.972029,1.202734 -1.904993,1.203536 -0.581556,5e-4 -0.791756,-0.09162 -1.246305,-0.546165 z"
     id="path865"
     inkscape:connector-curvature="0"
     transform="matrix(0.26455882,0,0,0.26455882,0,-0.00117647)" />
  <path
     style="fill:#dbdbdb;fill-opacity:1;stroke-width:0.16081358"
     d="m 44.24795,30.813911 c -0.540084,-0.223394 -1.052971,-0.895011 -1.152674,-1.509406 -0.201915,-1.24426 0.646789,-2.1967 1.957444,-2.1967 0.644347,0 0.83533,0.08021 1.301888,0.546767 0.44613,0.44613 0.546766,0.669591 0.546766,1.214087 0,0.367027 -0.113356,0.886528 -0.251901,1.154445 -0.387986,0.750282 -1.563587,1.1374 -2.401523,0.790807 z"
     id="path867"
     inkscape:connector-curvature="0"
     transform="matrix(0.26455882,0,0,0.26455882,0,-0.00117647)" />
  <path
     style="fill:#dbdbdb;fill-opacity:1;stroke-width:0.16081358"
     d="m 14.155591,33.414228 c -0.564784,-0.08562 -1.057232,-0.742086 -1.057232,-1.409355 0,-1.288614 1.489047,-1.905144 2.400346,-0.993846 1.018501,1.018501 0.120594,2.625104 -1.343114,2.403201 z"
     id="path869"
     inkscape:connector-curvature="0"
     transform="matrix(0.26455882,0,0,0.26455882,0,-0.00117647)" />
  <path
     style="fill:#dbdbdb;fill-opacity:1;stroke-width:0.16081358"
     d="m 11.626275,37.648774 c -0.932467,-0.864181 -0.306948,-2.500289 0.955914,-2.500289 1.313434,0 1.961661,1.663523 0.977947,2.509678 -0.595326,0.512078 -1.375275,0.508291 -1.933861,-0.0094 z"
     id="path871"
     inkscape:connector-curvature="0"
     transform="matrix(0.26455882,0,0,0.26455882,0,-0.00117647)" />
  <path
     style="fill:#dbdbdb;fill-opacity:1;stroke-width:0.16081358"
     d="m 7.0072351,39.502821 c -0.5992693,-0.599269 -0.6176588,-1.259616 -0.053741,-1.929794 0.8404894,-0.998865 2.4783152,-0.399836 2.4783152,0.906435 0,0.739122 -0.7310196,1.49343 -1.4473222,1.49343 -0.3461507,0 -0.6564292,-0.149248 -0.977252,-0.470071 z"
     id="path873"
     inkscape:connector-curvature="0"
     transform="matrix(0.26455882,0,0,0.26455882,0,-0.00117647)" />
  <path
     style="fill:#dbdbdb;fill-opacity:1;stroke-width:0.16081358"
     d="M 2.6223674,37.861002 C 2.459297,37.766211 2.223136,37.442764 2.0975652,37.142231 1.9001626,36.66978 1.9003594,36.521362 2.0990188,36.045903 c 0.514519,-1.231417 2.0900429,-1.231417 2.6045619,0 0.4155171,0.994473 -0.2593162,2.003919 -1.3319123,1.992336 -0.2490451,-0.0027 -0.5862306,-0.08245 -0.749301,-0.177237 z"
     id="path875"
     inkscape:connector-curvature="0"
     transform="matrix(0.26455882,0,0,0.26455882,0,-0.00117647)" />
  <path
     style="fill:#dbdbdb;fill-opacity:1;stroke-width:0.16081358"
     d="M 0.49934559,32.984811 C -0.2588513,32.226614 0.0759686,30.961004 1.13425,30.584889 c 0.4970028,-0.176635 1.3638974,0.201482 1.6265923,0.709478 0.3389931,0.655541 0.2976378,1.025238 -0.1779058,1.590389 -0.5478288,0.651058 -1.4874664,0.696179 -2.08359091,0.100055 z"
     id="path877"
     inkscape:connector-curvature="0"
     transform="matrix(0.26455882,0,0,0.26455882,0,-0.00117647)" />
  <path
     style="fill:#dbdbdb;fill-opacity:1;stroke-width:0.16081358"
     d="M 2.6544919,28.632897 C 1.4205614,27.96256 1.9785148,25.98211 3.4012998,25.98211 c 1.44382,0 1.9819048,2.002761 0.7142122,2.658311 -0.5646804,0.292007 -0.9129555,0.290214 -1.4610201,-0.0075 z"
     id="path879"
     inkscape:connector-curvature="0"
     transform="matrix(0.26455882,0,0,0.26455882,0,-0.00117647)" />
</svg>
